# xmcd
# 
# Track frame offsets:
#     150
#     11848
#     24105
#     42200
#     53980
#     66680
#     81455
#     95545
#     108150
#     119855
#     133200
#     145145
#     158000
#     175308
#     187463
#     199130
#     212593
#     225683
#     240073
#     253833
#     269058
#     280373
#     296795
#     312293
#     323260
# 
# Disc length: 4577
# 
# Revision: 11
# Processed by: cddbd v1.5.2PL0 Copyright (c) Steve Scherf et al.
# Submitted via: fre:ac v1.0.17
# 
DISCID=8211df19
DTITLE=Paul Mauriat - 恋はみずいろ～ベスト25
DYEAR=1997
DGENRE=Pop
TTITLE0=オリーブの首飾り
TTITLE1=涙のトッカータ
TTITLE2=エーゲ海の真珠
TTITLE3=恋はみずいろ
TTITLE4=蒼いノクターン
TTITLE5=真珠とり
TTITLE6=シバの女王
TTITLE7=この胸のときめきを
TTITLE8=カトリーヌ
TTITLE9=雪が降る
TTITLE10=愛の休日
TTITLE11=マミー・ブルー
TTITLE12=イエスタデイ・ワンス・モア
TTITLE13=果てしなき愛
TTITLE14=輝く星座
TTITLE15=そよ風のメヌエット
TTITLE16=インシャラー
TTITLE17=コンドルは飛んで行く
TTITLE18=悲しき天使
TTITLE19=フィーリング
TTITLE20=ひき潮
TTITLE21=愛の終りのサンバ
TTITLE22=想い出のサンフランシスコ
TTITLE23=ポール・モーリアのアダージョ
TTITLE24=明日に架ける橋(メドレー)
EXTD=
EXTT0=
EXTT1=
EXTT2=
EXTT3=
EXTT4=
EXTT5=
EXTT6=
EXTT7=
EXTT8=
EXTT9=
EXTT10=
EXTT11=
EXTT12=
EXTT13=
EXTT14=
EXTT15=
EXTT16=
EXTT17=
EXTT18=
EXTT19=
EXTT20=
EXTT21=
EXTT22=
EXTT23=
EXTT24=
PLAYORDER=
